# xmcd
#
# Track frame offsets:
#	150
#	32400
#	67050
#	118650
#	169350
#	225750
#	276450
#	315750
#
# Disc length: 4394 seconds
#
# Revision: 1
# Processed by: cddbd v1.5PL3 Copyright (c) Steve Scherf et al.
# Submitted via: audiograbber 1.83.01
#
DISCID=63112808
DTITLE=Robert B Reich - Reason (4of6) Why Liberals will win the Battle for Amer
DTITLE=ica
DYEAR=2004
DGENRE=Speech
TTITLE0=Disk4T01
TTITLE1=Disk4T02
TTITLE2=Disk4T03
TTITLE3=Disk4T04
TTITLE4=Disk4T05
TTITLE5=Disk4T06
TTITLE6=Disk4T07
TTITLE7=Disk4T08
EXTD=
EXTT0=
EXTT1=
EXTT2=
EXTT3=
EXTT4=
EXTT5=
EXTT6=
EXTT7=
PLAYORDER=
